/* XPM */
static char * ftepm[] = {
/* width height ncolors chars_per_pixel */
"32 32 3 1",
/* colors */
"  c #000000",
"! c #FF0000",
"# c #800000",
/* pixels */
"                                ",
"  !!!!!!!!                      ",
"  !!!!!!!!#                     ",
"  !!#######                     ",
"  !!#                           ",
"  !!#                           ",
"  !!!!!!                        ",
"  !!!!!!#                       ",
"  !!#####                       ",
"  !!#                           ",
"  !!#     !!!!!!!!!!            ",
"  !!#     !!!!!!!!!!#           ",
"  !!#      ###!!#####           ",
"  !!#         !!#               ",
"   ##         !!#               ",
"              !!#               ",
"              !!#               ",
"              !!#               ",
"              !!#    !!!!!!!!   ",
"              !!#    !!!!!!!!#  ",
"              !!#    !!#######  ",
"              !!#    !!#        ",
"               ##    !!#        ",
"                     !!!!!!     ",
"                     !!!!!!#    ",
"                     !!#####    ",
"                     !!#        ",
"                     !!#        ",
"                     !!!!!!!!   ",
"                     !!!!!!!!#  ",
"                      ########  ",
"                                "
};
