/* XPM */
static char * efte20x20_simple_xpm[] = {
"20 20 2 1",
" 	c None",
".	c #FF0000",
"                    ",
"       ...          ",
"       .  .....     ",
"       .    .       ",
"  .... .    .       ",
"  .  . .... . ....  ",
"  .  . .    . .     ",
"  ...  .    . .     ",
"  .    .    . .     ",
"  .    .    . .     ",
"  .    .    . ....  ",
"   ... .    . .     ",
"       .    . .     ",
"       .    . .     ",
"       .    . .     ",
"       .    . .     ",
"       .    . .     ",
"            . .     ",
"            . ....  ",
"                    "};
