/* XPM */
static char * efte32x32_xpm[] = {
"36 36 180 2",
"  	c None",
". 	c #780000",
"+ 	c #BF0000",
"@ 	c #BD0002",
"# 	c #B2000F",
"$ 	c #A8001C",
"% 	c #5A0042",
"& 	c #0000EE",
"* 	c #9B0000",
"= 	c #F70000",
"- 	c #9F000B",
"; 	c #23005D",
"> 	c #0300D7",
", 	c #A00000",
"' 	c #FF0000",
") 	c #EF0000",
"! 	c #D10000",
"~ 	c #CC0000",
"{ 	c #A80000",
"] 	c #4C002C",
"^ 	c #0800D0",
"/ 	c #DA0000",
"( 	c #8C0000",
"_ 	c #640017",
": 	c #60001D",
"< 	c #5B001D",
"[ 	c #340045",
"} 	c #0500D3",
"| 	c #9E0002",
"1 	c #D80000",
"2 	c #760000",
"3 	c #16009C",
"4 	c #0C00C1",
"5 	c #0700C9",
"6 	c #0000E8",
"7 	c #930012",
"8 	c #DE0000",
"9 	c #8A0000",
"0 	c #320090",
"a 	c #2800B2",
"b 	c #0B00CC",
"c 	c #80002E",
"d 	c #E50000",
"e 	c #D20000",
"f 	c #CF0000",
"g 	c #45004E",
"h 	c #0700C8",
"i 	c #0000EA",
"j 	c #78003A",
"k 	c #84000D",
"l 	c #28006B",
"m 	c #0200E0",
"n 	c #77003B",
"o 	c #E20000",
"p 	c #AB0000",
"q 	c #9D0000",
"r 	c #9C0000",
"s 	c #7B0000",
"t 	c #340059",
"u 	c #0300DE",
"v 	c #7E0000",
"w 	c #3E0047",
"x 	c #380058",
"y 	c #340058",
"z 	c #180090",
"A 	c #0100E3",
"B 	c #750000",
"C 	c #0F00B5",
"D 	c #0400DF",
"E 	c #0300DF",
"F 	c #0100E4",
"G 	c #3B0061",
"H 	c #95000F",
"I 	c #700019",
"J 	c #0C00C9",
"K 	c #740000",
"L 	c #7B0035",
"M 	c #C70001",
"N 	c #3F0042",
"O 	c #0400D2",
"P 	c #D70000",
"Q 	c #56004A",
"R 	c #C80000",
"S 	c #D50000",
"T 	c #F80000",
"U 	c #BA0000",
"V 	c #6A0000",
"W 	c #0B00C1",
"X 	c #0C00C7",
"Y 	c #570002",
"Z 	c #6E0000",
"` 	c #7F0000",
" .	c #700000",
"..	c #560000",
"+.	c #0900C1",
"@.	c #650046",
"#.	c #DF0005",
"$.	c #C90000",
"%.	c #720000",
"&.	c #5A0000",
"*.	c #0B00BA",
"=.	c #0100E5",
"-.	c #1600AA",
";.	c #540038",
">.	c #5D0000",
",.	c #0A00C1",
"'.	c #520013",
").	c #0E00AC",
"!.	c #210085",
"~.	c #1D0085",
"{.	c #0300DA",
"].	c #2A00AE",
"^.	c #D00000",
"/.	c #3A0053",
"(.	c #0400DD",
"_.	c #380059",
":.	c #2C00AB",
"<.	c #3B0050",
"[.	c #0400DC",
"}.	c #1800A4",
"|.	c #700035",
"1.	c #7C0035",
"2.	c #640035",
"3.	c #580004",
"4.	c #E70000",
"5.	c #D90000",
"6.	c #5E0004",
"7.	c #FA0000",
"8.	c #E30000",
"9.	c #C60000",
"0.	c #F10000",
"a.	c #AD0000",
"b.	c #5F0000",
"c.	c #960000",
"d.	c #F00000",
"e.	c #A40000",
"f.	c #450000",
"g.	c #5E0000",
"h.	c #790000",
"i.	c #4E0000",
"j.	c #AF0000",
"k.	c #CD0000",
"l.	c #CF0002",
"m.	c #BF0014",
"n.	c #6F0041",
"o.	c #0C00D2",
"p.	c #FE0000",
"q.	c #F90000",
"r.	c #B80000",
"s.	c #48001D",
"t.	c #0800C1",
"u.	c #F60000",
"v.	c #A10000",
"w.	c #A70000",
"x.	c #5F0003",
"y.	c #4C0020",
"z.	c #48002C",
"A.	c #46002C",
"B.	c #2E0045",
"C.	c #0600C9",
"D.	c #2E003F",
"E.	c #F40000",
"F.	c #C10000",
"G.	c #6B002F",
"H.	c #4F0077",
"I.	c #4C0062",
"J.	c #EB0000",
"K.	c #C00000",
"L.	c #37007A",
"M.	c #C70009",
"N.	c #E80000",
"O.	c #0900CB",
"P.	c #390070",
"Q.	c #880000",
"R.	c #840000",
"S.	c #670000",
"T.	c #250082",
"U.	c #290077",
"V.	c #330057",
"W.	c #47001D",
"                                                                        ",
"        . + + + + + @ # $ % & & & & & & & & & & & &                     ",
"        * = = = = = = = = - ; > & & & & & & & & & & & & &               ",
"        , ' ) ! ~ ~ ~ ~ ~ { ] ^ & & & & & & & & & & & & & & &           ",
"        , ' / ( _ : : : : < [ } & & & & & & & & & & & & & & & &         ",
"        | ' 1 2 3 4 4 4 4 4 5 6 &           & & & & & & & & & & &       ",
"        7 ' 8 9 0 a a b & & & &               & & & & & & & & & & &     ",
"        c ' = d e f f g h i &                   & & & & & & & & & & &   ",
"        j ' ' ' ' ' ' k l m &                   & & & & & & & & & & &   ",
"      & n ' o p q r r s t u                       & & & & & & & & & & & ",
"    & & n ' 1 v w x x y z A                       & & & & & & & & & & & ",
"    & & n ' 1 B C D D E F G H , , , , , , , , , I J & & & & & & & & & & ",
"    & & n ' 1 K 4 & & & & L ' ' ' ' ' ' ' ' ' ' M N O & & & & & & & & & ",
"  & & & n ' P K 4 & & & & Q R S 1 8 T ' o 1 1 1 U V W & & & & & & & & & ",
"  & & & n ' 1 K 4 & & & & X Y Z K 9 d ' p ` B K  ...+.& & & & & & & & & ",
"  & & & @.#.$.%.4 & & & & &         e ' q &.      *.=.& & & & & & & & & ",
"  & & & -.;.s >.,.& & & & &         f ' r '.      & & & & & & & & & & & ",
"  & & & & ).!.~.{.& & & & & & & & ].^.' r /.(.& & & & & & & & & & & & & ",
"  & & & & & & & & & & & & & & & & a f ' r _.D & & & & & & & & & & & & & ",
"  & & & & & & & & & & & & & & & & a f ' r _.D & & & & & & & & & & & & & ",
"  & & & & & & & & & & & & & & & & :.^.' r <.[.& & }.|.1.1.1.1.1.1.1.2.X ",
"  & & & & & & & & & & & & &         f ' r 3.        4.' ' ' ' ' ' ' 5.6.",
"  & & & & & & & & & & & & &         f ' r &.        4.7.8.1 1 1 1 1 9.2 ",
"  & & & & & & & & & & & & &         ^.' r &.        4.0.a.s K K K K %.b.",
"  & & & & & & & & & & & & &         U 4.c.&.        4.d.e.f.            ",
"    & & & & & & & & & & & &         g.h. .i.        4.0.j.g.            ",
"    & & & & & & & & & & & &                         4.7.d k.l.m.n.o.& & ",
"    & & & & & & & & & & & &                         4.p.q.= = = r.s.t.& ",
"      & & & & & & & & & & & &                       4.u.~ r.r.r.v.< 4 & ",
"      & & & & & & & & & & & &                       4.d.w.x.y.z.A.B.C.& ",
"        & & & & & & & & & & & &                     4.d.e.D.& & & & &   ",
"        & & & & & & & & & & & &                     4.E.F.G.H.H.H.H.I.  ",
"          & & & & & & & & & & & & &                 4.p.= J.4.4.4.4.K.  ",
"            & & & & & & & & & & & & & &           L.M.N.J.J.J.J.J.J.S K ",
"              & & & & & & & & & & & & & & & & & & O.P.. Q.Q.Q.Q.Q.Q.R.S.",
"                  & & & & & & & & & & & & & & & & & } ~.T.U.V.W.        "};
