/* XPM */
static char * efte16x16_simple_xpm[] = {
"16 16 2 1",
" 	c None",
".	c #FF0000",
"                ",
"      ..        ",
"      . .....   ",
"  ... .   .     ",
"  . . ... . ... ",
"  . . .   . .   ",
"  ..  .   . .   ",
"  .   .   . .   ",
"  .   .   . ... ",
"  ... .   . .   ",
"      .   . .   ",
"      .   . .   ",
"      .   . .   ",
"      .   . .   ",
"          . ... ",
"                "};
