/* XPM */
static const char * efte64x64_xpm[] = {
"64 64 4 1",
" 	c None",
".	c #000000",
"+	c #FF0000",
"@	c #FFFFFF",
"                                                                ",
"                                                                ",
"                      ..............                            ",
"                      ..............                            ",
"                      ..++++++++++..                            ",
"                      ..++++++++++..                            ",
"    @@@@@@@@@@@@@@@@@@..++++++++++....................@@@@@@    ",
"    @@@@@@@@@@@@@@@@@@..++++++++++....................@@@@@@    ",
"                      ..++++......++++++++++++++++++..          ",
"                      ..++++......++++++++++++++++++..          ",
"          ..........  ..++++..  ..++++++++++++++++++..          ",
"          ..........  ..++++..  ..++++++++++++++++++..          ",
"    @@....++++++++..@@..++++..@@........++++++........@@@@@@    ",
"    @@....++++++++..@@..++++..@@........++++++........@@@@@@    ",
"      ..++++++++++++....++++..        ..++++++..                ",
"      ..++++++++++++....++++..        ..++++++..                ",
"      ..++++....++++....++++............++++++................  ",
"      ..++++....++++....++++............++++++................  ",
"      ..++++....++++....++++++++++++....++++++..++++++++++++..  ",
"      ..++++....++++....++++++++++++....++++++..++++++++++++..  ",
"    @@..++++....++++....++++++++++++....++++++..++++++++++++..  ",
"    @@..++++....++++....++++++++++++....++++++..++++++++++++..  ",
"      ..++++....++++....++++............++++++..++++..........  ",
"      ..++++....++++....++++............++++++..++++..........  ",
"      ..++++++++++++....++++..        ..++++++..++++..          ",
"      ..++++++++++++....++++..        ..++++++..++++..          ",
"    @@..++++++++++......++++..@@@@@@@@..++++++..++++..@@@@@@    ",
"    @@..++++++++++......++++..@@@@@@@@..++++++..++++..@@@@@@    ",
"      ..++++......    ..++++..        ..++++++..++++..          ",
"      ..++++......    ..++++..        ..++++++..++++..          ",
"      ..++++..        ..++++..        ..++++++..++++..........  ",
"      ..++++..        ..++++..        ..++++++..++++..........  ",
"    @@..++++..@@@@@@@@..++++..@@@@@@@@..++++++..++++++++++++..  ",
"    @@..++++..@@@@@@@@..++++..@@@@@@@@..++++++..++++++++++++..  ",
"      ..++++..        ..++++..        ..++++++..++++++++++++..  ",
"      ..++++..        ..++++..        ..++++++..++++++++++++..  ",
"      ..++++............++++..        ..++++++..++++..........  ",
"      ..++++............++++..        ..++++++..++++..........  ",
"    @@..++++++++++++....++++..@@@@@@@@..++++++..++++..@@@@@@    ",
"    @@..++++++++++++....++++..@@@@@@@@..++++++..++++..@@@@@@    ",
"        ..++++++++..  ..++++..        ..++++++..++++..          ",
"        ..++++++++..  ..++++..        ..++++++..++++..          ",
"          ........    ..++++..        ..++++++..++++..          ",
"          ........    ..++++..        ..++++++..++++..          ",
"    @@@@@@@@@@@@@@@@@@..++++..@@@@@@@@..++++++..++++..@@@@@@    ",
"    @@@@@@@@@@@@@@@@@@..++++..@@@@@@@@..++++++..++++..@@@@@@    ",
"                      ..++++..        ..++++++..++++..          ",
"                      ..++++..        ..++++++..++++..          ",
"                      ..++++..        ..++++++..++++..          ",
"                      ..++++..        ..++++++..++++..          ",
"    @@@@@@@@@@@@@@@@@@..++++..@@@@@@@@..++++++..++++..@@@@@@    ",
"    @@@@@@@@@@@@@@@@@@..++++..@@@@@@@@..++++++..++++..@@@@@@    ",
"                      ..++++..        ..++++++..++++..          ",
"                      ..++++..        ..++++++..++++..          ",
"                      ..++++..        ..++++++..++++..........  ",
"                      ..++++..        ..++++++..++++..........  ",
"    @@@@@@@@@@@@@@@@@@..++++..@@@@@@@@..++++++..++++++++++++..  ",
"    @@@@@@@@@@@@@@@@@@..++++..@@@@@@@@..++++++..++++++++++++..  ",
"                      ........        ..++++++..++++++++++++..  ",
"                      ........        ..++++++..++++++++++++..  ",
"                                      ........................  ",
"                                      ........................  ",
"                                                                ",
"                                                                "};
