/* XPM */
static char * efte16x16_xpm[] = {
"16 16 87 1",
" 	c None",
".	c #C40000",
"+	c #DF0000",
"@	c #D30000",
"#	c #C80000",
"$	c #C30000",
"%	c #680015",
"&	c #0000EE",
"*	c #DC0000",
"=	c #940000",
"-	c #4C0048",
";	c #220096",
">	c #1000BC",
",	c #0000EC",
"'	c #E30000",
")	c #E70001",
"!	c #D20012",
"~	c #31007E",
"{	c #0000EB",
"]	c #D70005",
"^	c #920010",
"/	c #5F003E",
"(	c #33006E",
"_	c #0B00D8",
":	c #1500CD",
"<	c #0400E4",
"[	c #CD000F",
"}	c #68003F",
"|	c #0200E3",
"1	c #A10028",
"2	c #D60005",
"3	c #DD0000",
"4	c #5F0038",
"5	c #C10015",
"6	c #660040",
"7	c #0100E9",
"8	c #0200E8",
"9	c #3E0079",
"0	c #8C000A",
"a	c #EA0000",
"b	c #9E0000",
"c	c #8B0000",
"d	c #57001B",
"e	c #0000EA",
"f	c #0400E3",
"g	c #3A0079",
"h	c #34006B",
"i	c #E50000",
"j	c #820000",
"k	c #E00004",
"l	c #770013",
"m	c #0D00D9",
"n	c #0D00DA",
"o	c #0700E0",
"p	c #D20013",
"q	c #5F003F",
"r	c #52007F",
"s	c #CC0013",
"t	c #C90013",
"u	c #8C0031",
"v	c #1400CD",
"w	c #D2000C",
"x	c #6B0028",
"y	c #0200E5",
"z	c #7F0054",
"A	c #D60000",
"B	c #78001D",
"C	c #750028",
"D	c #66002A",
"E	c #5F0000",
"F	c #C50000",
"G	c #DE0000",
"H	c #A70000",
"I	c #CC0000",
"J	c #A20000",
"K	c #D10000",
"L	c #640000",
"M	c #3D0063",
"N	c #0F00C7",
"O	c #EC0000",
"P	c #DA0002",
"Q	c #CD0014",
"R	c #8A0036",
"S	c #7D0008",
"T	c #720026",
"U	c #67003B",
"V	c #5B003B",
"   ..           ",
"  +@#$% &&&     ",
"  *=-;>,&&&&&&  ",
"  ')!~{&   &&&& ",
"  ]^/(_:   <&&&&",
"  [}|_12'3@4{&&&",
"  567890abcde&&&",
" fghe&{ ij  &&&&",
" &&&&&& kl  mnno",
" &&&&&&npq7rsttu",
" &&&&&&vwxyzABCD",
" &&&&&&  E FGH  ",
"  &&&&&    FaIJ ",
"  &&&&&    FKLMN",
"  &&&&&&    OPQR",
"   &&&&&    STUV"};
