/* XPM */
static char * efte40x40_xpm[] = {
"40 40 4 1",
" 	c None",
".	c #000000",
"+	c #FF0000",
"@	c #FFFFFF",
"                                        ",
"              ........                  ",
"              .++++++.                  ",
"              .++++++.                  ",
"  @@@@@@@@@@@@.++++++.............@@@   ",
"              .++....+++++++++++..      ",
"      ......  .++.. .+++++++++++..      ",
"    ..+++++.  .++.. .....+++......      ",
"  @@..+++++.@@.++..@.....+++......@@@   ",
"    .+++++++...++..     .+++..          ",
"    .++...++...++........+++........... ",
"    .++...++...+++++++...+++..+++++++.. ",
"  @@.++...++...+++++++...+++..+++++++.. ",
"    .++...++...+++++++...+++..+++++++.. ",
"    .++...++...++........+++..++....... ",
"    .+++++++...++..     .+++..++..      ",
"  @@.++++++....++..@@@@@.+++..++..@@@   ",
"    .++....   .++..     .+++..++..      ",
"    .++....   .++..     .+++..++..      ",
"    .++..     .++..     .+++..++....... ",
"  @@.++..@@@@@.++..@@@@@.+++..+++++++.. ",
"    .++..     .++..     .+++..+++++++.. ",
"    .++...    .++..     .+++..++....... ",
"    .++...... .++..     .+++..++....... ",
"  @@.+++++++.@.++..@@@@@.+++..++..@@@   ",
"     .+++++.  .++..     .+++..++..      ",
"      .....   .++..     .+++..++..      ",
"  @@@@@@@@@@@@.++..@@@@@.+++..++..@@@   ",
"              .++..     .+++..++..      ",
"              .++..     .+++..++..      ",
"              .++..     .+++..++..      ",
"  @@@@@@@@@@@@.++..@@@@@.+++..++..@@@   ",
"              .++..     .+++..++..      ",
"              .++..     .+++..++..      ",
"              .++..     .+++..++....... ",
"  @@@@@@@@@@@@.++..@@@@@.+++..+++++++.. ",
"              .....     .+++..+++++++.. ",
"                        ............... ",
"                        ............... ",
"                                        "};
