/* XPM */
static char * eFTE2_128x128_xpm[] = {
"128 128 4 1",
" 	c None",
".	c #000000",
"+	c #FF0000",
"@	c #FFFFFF",
"                                                                                                                                ",
"                                                                                                                                ",
"                                                                                                                                ",
"                                                                                                                                ",
"                                            ............................                                                        ",
"                                            ............................                                                        ",
"                                            ............................                                                        ",
"                                            ............................                                                        ",
"                                            ....++++++++++++++++++++....                                                        ",
"                                            ....++++++++++++++++++++....                                                        ",
"                                            ....++++++++++++++++++++....                                                        ",
"                                            ....++++++++++++++++++++....                                                        ",
"        @@@@@@@@@@@@@@@@@@@@@@@@@@@@@@@@@@@@....++++++++++++++++++++........................................@@@@@@@@@@@@        ",
"        @@@@@@@@@@@@@@@@@@@@@@@@@@@@@@@@@@@@....++++++++++++++++++++........................................@@@@@@@@@@@@        ",
"        @@@@@@@@@@@@@@@@@@@@@@@@@@@@@@@@@@@@....++++++++++++++++++++........................................@@@@@@@@@@@@        ",
"        @@@@@@@@@@@@@@@@@@@@@@@@@@@@@@@@@@@@....++++++++++++++++++++........................................@@@@@@@@@@@@        ",
"                                            ....++++++++............++++++++++++++++++++++++++++++++++++....                    ",
"                                            ....++++++++............++++++++++++++++++++++++++++++++++++....                    ",
"                                            ....++++++++............++++++++++++++++++++++++++++++++++++....                    ",
"                                            ....++++++++............++++++++++++++++++++++++++++++++++++....                    ",
"                    ....................    ....++++++++....    ....++++++++++++++++++++++++++++++++++++....                    ",
"                    ....................    ....++++++++....    ....++++++++++++++++++++++++++++++++++++....                    ",
"                    ....................    ....++++++++....    ....++++++++++++++++++++++++++++++++++++....                    ",
"                    ....................    ....++++++++....    ....++++++++++++++++++++++++++++++++++++....                    ",
"        @@@@........++++++++++++++++....@@@@....++++++++....@@@@................++++++++++++................@@@@@@@@@@@@        ",
"        @@@@........++++++++++++++++....@@@@....++++++++....@@@@................++++++++++++................@@@@@@@@@@@@        ",
"        @@@@........++++++++++++++++....@@@@....++++++++....@@@@................++++++++++++................@@@@@@@@@@@@        ",
"        @@@@........++++++++++++++++....@@@@....++++++++....@@@@................++++++++++++................@@@@@@@@@@@@        ",
"            ....++++++++++++++++++++++++........++++++++....                ....++++++++++++....                                ",
"            ....++++++++++++++++++++++++........++++++++....                ....++++++++++++....                                ",
"            ....++++++++++++++++++++++++........++++++++....                ....++++++++++++....                                ",
"            ....++++++++++++++++++++++++........++++++++....                ....++++++++++++....                                ",
"            ....++++++++........++++++++........++++++++........................++++++++++++................................    ",
"            ....++++++++........++++++++........++++++++........................++++++++++++................................    ",
"            ....++++++++........++++++++........++++++++........................++++++++++++................................    ",
"            ....++++++++........++++++++........++++++++........................++++++++++++................................    ",
"            ....++++++++........++++++++........++++++++++++++++++++++++........++++++++++++....++++++++++++++++++++++++....    ",
"            ....++++++++........++++++++........++++++++++++++++++++++++........++++++++++++....++++++++++++++++++++++++....    ",
"            ....++++++++........++++++++........++++++++++++++++++++++++........++++++++++++....++++++++++++++++++++++++....    ",
"            ....++++++++........++++++++........++++++++++++++++++++++++........++++++++++++....++++++++++++++++++++++++....    ",
"        @@@@....++++++++........++++++++........++++++++++++++++++++++++........++++++++++++....++++++++++++++++++++++++....    ",
"        @@@@....++++++++........++++++++........++++++++++++++++++++++++........++++++++++++....++++++++++++++++++++++++....    ",
"        @@@@....++++++++........++++++++........++++++++++++++++++++++++........++++++++++++....++++++++++++++++++++++++....    ",
"        @@@@....++++++++........++++++++........++++++++++++++++++++++++........++++++++++++....++++++++++++++++++++++++....    ",
"            ....++++++++........++++++++........++++++++........................++++++++++++....++++++++....................    ",
"            ....++++++++........++++++++........++++++++........................++++++++++++....++++++++....................    ",
"            ....++++++++........++++++++........++++++++........................++++++++++++....++++++++....................    ",
"            ....++++++++........++++++++........++++++++........................++++++++++++....++++++++....................    ",
"            ....++++++++++++++++++++++++........++++++++....                ....++++++++++++....++++++++....                    ",
"            ....++++++++++++++++++++++++........++++++++....                ....++++++++++++....++++++++....                    ",
"            ....++++++++++++++++++++++++........++++++++....                ....++++++++++++....++++++++....                    ",
"            ....++++++++++++++++++++++++........++++++++....                ....++++++++++++....++++++++....                    ",
"        @@@@....++++++++++++++++++++............++++++++....@@@@@@@@@@@@@@@@....++++++++++++....++++++++....@@@@@@@@@@@@        ",
"        @@@@....++++++++++++++++++++............++++++++....@@@@@@@@@@@@@@@@....++++++++++++....++++++++....@@@@@@@@@@@@        ",
"        @@@@....++++++++++++++++++++............++++++++....@@@@@@@@@@@@@@@@....++++++++++++....++++++++....@@@@@@@@@@@@        ",
"        @@@@....++++++++++++++++++++............++++++++....@@@@@@@@@@@@@@@@....++++++++++++....++++++++....@@@@@@@@@@@@        ",
"            ....++++++++............        ....++++++++....                ....++++++++++++....++++++++....                    ",
"            ....++++++++............        ....++++++++....                ....++++++++++++....++++++++....                    ",
"            ....++++++++............        ....++++++++....                ....++++++++++++....++++++++....                    ",
"            ....++++++++............        ....++++++++....                ....++++++++++++....++++++++....                    ",
"            ....++++++++....                ....++++++++....                ....++++++++++++....++++++++....................    ",
"            ....++++++++....                ....++++++++....                ....++++++++++++....++++++++....................    ",
"            ....++++++++....                ....++++++++....                ....++++++++++++....++++++++....................    ",
"            ....++++++++....                ....++++++++....                ....++++++++++++....++++++++....................    ",
"        @@@@....++++++++....@@@@@@@@@@@@@@@@....++++++++....@@@@@@@@@@@@@@@@....++++++++++++....++++++++++++++++++++++++....    ",
"        @@@@....++++++++....@@@@@@@@@@@@@@@@....++++++++....@@@@@@@@@@@@@@@@....++++++++++++....++++++++++++++++++++++++....    ",
"        @@@@....++++++++....@@@@@@@@@@@@@@@@....++++++++....@@@@@@@@@@@@@@@@....++++++++++++....++++++++++++++++++++++++....    ",
"        @@@@....++++++++....@@@@@@@@@@@@@@@@....++++++++....@@@@@@@@@@@@@@@@....++++++++++++....++++++++++++++++++++++++....    ",
"            ....++++++++....                ....++++++++....                ....++++++++++++....++++++++++++++++++++++++....    ",
"            ....++++++++....                ....++++++++....                ....++++++++++++....++++++++++++++++++++++++....    ",
"            ....++++++++....                ....++++++++....                ....++++++++++++....++++++++++++++++++++++++....    ",
"            ....++++++++....                ....++++++++....                ....++++++++++++....++++++++++++++++++++++++....    ",
"            ....++++++++........................++++++++....                ....++++++++++++....++++++++....................    ",
"            ....++++++++........................++++++++....                ....++++++++++++....++++++++....................    ",
"            ....++++++++........................++++++++....                ....++++++++++++....++++++++....................    ",
"            ....++++++++........................++++++++....                ....++++++++++++....++++++++....................    ",
"        @@@@....++++++++++++++++++++++++........++++++++....@@@@@@@@@@@@@@@@....++++++++++++....++++++++....@@@@@@@@@@@@        ",
"        @@@@....++++++++++++++++++++++++........++++++++....@@@@@@@@@@@@@@@@....++++++++++++....++++++++....@@@@@@@@@@@@        ",
"        @@@@....++++++++++++++++++++++++........++++++++....@@@@@@@@@@@@@@@@....++++++++++++....++++++++....@@@@@@@@@@@@        ",
"        @@@@....++++++++++++++++++++++++........++++++++....@@@@@@@@@@@@@@@@....++++++++++++....++++++++....@@@@@@@@@@@@        ",
"                ....++++++++++++++++....    ....++++++++....                ....++++++++++++....++++++++....                    ",
"                ....++++++++++++++++....    ....++++++++....                ....++++++++++++....++++++++....                    ",
"                ....++++++++++++++++....    ....++++++++....                ....++++++++++++....++++++++....                    ",
"                ....++++++++++++++++....    ....++++++++....                ....++++++++++++....++++++++....                    ",
"                    ................        ....++++++++....                ....++++++++++++....++++++++....                    ",
"                    ................        ....++++++++....                ....++++++++++++....++++++++....                    ",
"                    ................        ....++++++++....                ....++++++++++++....++++++++....                    ",
"                    ................        ....++++++++....                ....++++++++++++....++++++++....                    ",
"        @@@@@@@@@@@@@@@@@@@@@@@@@@@@@@@@@@@@....++++++++....@@@@@@@@@@@@@@@@....++++++++++++....++++++++....@@@@@@@@@@@@        ",
"        @@@@@@@@@@@@@@@@@@@@@@@@@@@@@@@@@@@@....++++++++....@@@@@@@@@@@@@@@@....++++++++++++....++++++++....@@@@@@@@@@@@        ",
"        @@@@@@@@@@@@@@@@@@@@@@@@@@@@@@@@@@@@....++++++++....@@@@@@@@@@@@@@@@....++++++++++++....++++++++....@@@@@@@@@@@@        ",
"        @@@@@@@@@@@@@@@@@@@@@@@@@@@@@@@@@@@@....++++++++....@@@@@@@@@@@@@@@@....++++++++++++....++++++++....@@@@@@@@@@@@        ",
"                                            ....++++++++....                ....++++++++++++....++++++++....                    ",
"                                            ....++++++++....                ....++++++++++++....++++++++....                    ",
"                                            ....++++++++....                ....++++++++++++....++++++++....                    ",
"                                            ....++++++++....                ....++++++++++++....++++++++....                    ",
"                                            ....++++++++....                ....++++++++++++....++++++++....                    ",
"                                            ....++++++++....                ....++++++++++++....++++++++....                    ",
"                                            ....++++++++....                ....++++++++++++....++++++++....                    ",
"                                            ....++++++++....                ....++++++++++++....++++++++....                    ",
"        @@@@@@@@@@@@@@@@@@@@@@@@@@@@@@@@@@@@....++++++++....@@@@@@@@@@@@@@@@....++++++++++++....++++++++....@@@@@@@@@@@@        ",
"        @@@@@@@@@@@@@@@@@@@@@@@@@@@@@@@@@@@@....++++++++....@@@@@@@@@@@@@@@@....++++++++++++....++++++++....@@@@@@@@@@@@        ",
"        @@@@@@@@@@@@@@@@@@@@@@@@@@@@@@@@@@@@....++++++++....@@@@@@@@@@@@@@@@....++++++++++++....++++++++....@@@@@@@@@@@@        ",
"        @@@@@@@@@@@@@@@@@@@@@@@@@@@@@@@@@@@@....++++++++....@@@@@@@@@@@@@@@@....++++++++++++....++++++++....@@@@@@@@@@@@        ",
"                                            ....++++++++....                ....++++++++++++....++++++++....                    ",
"                                            ....++++++++....                ....++++++++++++....++++++++....                    ",
"                                            ....++++++++....                ....++++++++++++....++++++++....                    ",
"                                            ....++++++++....                ....++++++++++++....++++++++....                    ",
"                                            ....++++++++....                ....++++++++++++....++++++++....................    ",
"                                            ....++++++++....                ....++++++++++++....++++++++....................    ",
"                                            ....++++++++....                ....++++++++++++....++++++++....................    ",
"                                            ....++++++++....                ....++++++++++++....++++++++....................    ",
"        @@@@@@@@@@@@@@@@@@@@@@@@@@@@@@@@@@@@....++++++++....@@@@@@@@@@@@@@@@....++++++++++++....++++++++++++++++++++++++....    ",
"        @@@@@@@@@@@@@@@@@@@@@@@@@@@@@@@@@@@@....++++++++....@@@@@@@@@@@@@@@@....++++++++++++....++++++++++++++++++++++++....    ",
"        @@@@@@@@@@@@@@@@@@@@@@@@@@@@@@@@@@@@....++++++++....@@@@@@@@@@@@@@@@....++++++++++++....++++++++++++++++++++++++....    ",
"        @@@@@@@@@@@@@@@@@@@@@@@@@@@@@@@@@@@@....++++++++....@@@@@@@@@@@@@@@@....++++++++++++....++++++++++++++++++++++++....    ",
"                                            ................                ....++++++++++++....++++++++++++++++++++++++....    ",
"                                            ................                ....++++++++++++....++++++++++++++++++++++++....    ",
"                                            ................                ....++++++++++++....++++++++++++++++++++++++....    ",
"                                            ................                ....++++++++++++....++++++++++++++++++++++++....    ",
"                                                                            ................................................    ",
"                                                                            ................................................    ",
"                                                                            ................................................    ",
"                                                                            ................................................    ",
"                                                                                                                                ",
"                                                                                                                                ",
"                                                                                                                                ",
"                                                                                                                                "};
