/* XPM */
static char *efte__x__[] = {
/* columns rows colors chars-per-pixel */
"48 48 9 1",
"  c black",
". c #400000000000",
"X c #400040004000",
"o c #800000000000",
"O c #BFFF00000000",
"+ c red",
"@ c gray50",
"# c gray100",
"$ c None",
/* pixels */
"$$$$$$$$$$$$$$$$$$$$$$$$$$$$$$$$$$$$$$$$$$$$$$$$",
"$$$$$$$$$$$$$$$$$$$$$$$$$$$$$$$$$$$$$$$$$$$$$$$$",
"$$$$$$$$$$$$$$$$$          $$$$$$$$$$$$$$$$$$$$$",
"$$$$$$$$$$$$$$$$$ +++++++o $$$$$$$$$$$$$$$$$$$$$",
"$$$$$$$$$$$$$$$$X +++++++o $$$$$$$$$$$$$$$$$$$$$",
"$$$#############@ +++++++o              @####$$$",
"$$$$$$$$$$$$$$$$$ +++    o+++++++++++++ $$$$$$$$",
"$$$$$$$$$$$$$$$$$ +++  $ o+++++++++++++ $$$$$$$$",
"$$$$$$$$       $$ +++ $$ o+++++++++++++ $$$$$$$$",
"$$$#@  o+++++o #@ +++ @#      ++++o     @####$$$",
"$$$$X oO+++++Oo@X +++ X$$$$$  ++++o $$$$$$$$$$$$",
"$$$$$ +++++++++   +++ $$$$$$$ ++++o $$$$$$$$$$$$",
"$$$$$ +++   +++   +++         ++++o           $$",
"$$$$$ +++   +++   +++oooooo   ++++o ooooooooo $$",
"$$$$$ +++   +++   +++++++++   ++++o +++++++++ $$",
"$$$#@ +++   +++   +++++++++   ++++o +++++++++ $$",
"$$$$X +++   +++   +++oooooo   ++++o +++oooooo $$",
"$$$$$ +++   +++   +++         ++++o +++       $$",
"$$$$$ +++++++++   +++ $$$$$$$ ++++o +++ $$$$$$$$",
"$$$$X +++++++Oo   +++ X$$$$$X ++++o +++ X$$$$$$$",
"$$$#@ +++++++o    +++ @#####@ ++++o +++ @####$$$",
"$$$$$ +++    $$$$ +++ $$$$$$$ ++++o +++ $$$$$$$$",
"$$$$$ +++  $$$$$$ +++ $$$$$$$ ++++o +++  $$$$$$$",
"$$$$$ +++ $$$$$$$ +++ $$$$$$$ ++++o +++       $$",
"$$$#@ +++ @#####@ +++ @#####@ ++++o +++++++++ $$",
"$$$$X +++ X$$$$$X +++ X$$$$$X ++++o +++++++++ $$",
"$$$$$ +++ $$$$$$$ +++ $$$$$$$ ++++o +++++++++ $$",
"$$$$$ +++         +++ $$$$$$$ ++++o +++       $$",
"$$$$X +++oooooo   +++ X$$$$$X ++++o +++ X@@@@$$$",
"$$$#@ +++++++++   +++ @#####@ ++++o +++ @####$$$",
"$$$$$$ o+++++o $$ +++ $$$$$$$ ++++o +++ $$$$$$$$",
"$$$$$$$.ooooo.$$$ +++ $$$$$$$ ++++o +++ $$$$$$$$",
"$$$$$$$$     $$$$ +++ $$$$$$$ ++++o +++ $$$$$$$$",
"$$$#############@ +++ @#####@ ++++o +++ @####$$$",
"$$$$$$$$$$$$$$$$X +++ X$$$$$X ++++o +++ X$$$$$$$",
"$$$$$$$$$$$$$$$$$ +++ $$$$$$$ ++++o +++ $$$$$$$$",
"$$$$$$$$$$$$$$$$$ +++ $$$$$$$ ++++o +++ $$$$$$$$",
"$$$$$$$$$$$$$$$$X +++ X$$$$$X ++++o +++ X$$$$$$$",
"$$$#############@ +++ @#####@ ++++o +++ @####$$$",
"$$$$$$$$$$$$$$$$$ +++ $$$$$$$ ++++o +++ $$$$$$$$",
"$$$$$$$$$$$$$$$$$ +++ $$$$$$$ ++++o +++  $$$$$$$",
"$$$$$$$$$$$$$$$$$ +++ $$$$$$$ ++++o +++       $$",
"$$$#############@ +++ @#####@ ++++o +++++++++ $$",
"$$$$$$$$$$$$$$$$X ooo X$$$$$X ++++o +++++++++ $$",
"$$$$$$$$$$$$$$$$$     $$$$$$$ ++++o +++++++++ $$",
"$$$$$$$$$$$$$$$$$$$$$$$$$$$$$                 $$",
"$$$$$$$$$$$$$$$$$$$$$$$$$$$$$$$$$$$$$$$$$$$$$$$$",
"$$$$$$$$$$$$$$$$$$$$$$$$$$$$$$$$$$$$$$$$$$$$$$$$"
};
