/* XPM */
static char * efte64x64_xpm[] = {
"64 64 146 2",
"  	c #FFFFFF",
". 	c #DCDCFD",
"+ 	c #8F8FF8",
"@ 	c #4444F3",
"# 	c #0E0EEF",
"$ 	c #0000EE",
"% 	c #0202EE",
"& 	c #2C2CF1",
"* 	c #7070F5",
"= 	c #C3C3FB",
"- 	c #FDFDFF",
"; 	c #EFEFFE",
"> 	c #9090F8",
", 	c #2B2BF1",
"' 	c #1818F0",
") 	c #7575F6",
"! 	c #E4E4FD",
"~ 	c #400000",
"{ 	c #800000",
"] 	c #0505EE",
"^ 	c #5D5DF4",
"/ 	c #FF0000",
"( 	c #0808EF",
"_ 	c #7E7EF6",
": 	c #F6F6FE",
"< 	c #A00000",
"[ 	c #200000",
"} 	c #2323F0",
"| 	c #CFCFFC",
"1 	c #C00000",
"2 	c #0909EF",
"3 	c #9E9EF9",
"4 	c #DF0000",
"5 	c #0303EE",
"6 	c #5858F4",
"7 	c #AEAEFA",
"8 	c #E2E2FD",
"9 	c #F8F8FF",
"0 	c #DFDFFD",
"a 	c #AAAAF9",
"b 	c #5454F4",
"c 	c #7F7FF6",
"d 	c #D3D3FC",
"e 	c #D1D1FC",
"f 	c #2929F1",
"g 	c #7B7BF6",
"h 	c #F1F1FE",
"i 	c #600000",
"j 	c #EEEEFE",
"k 	c #2E2EF1",
"l 	c #8989F7",
"m 	c #4141F2",
"n 	c #0B0BEF",
"o 	c #DBDBFD",
"p 	c #B8B8FA",
"q 	c #6969F5",
"r 	c #8181F7",
"s 	c #1111EF",
"t 	c #E0E0FD",
"u 	c #B0B0FA",
"v 	c #ECECFE",
"w 	c #0707EE",
"x 	c #4848F3",
"y 	c #EAEAFE",
"z 	c #1313EF",
"A 	c #5151F3",
"B 	c #A5A5F9",
"C 	c #6868F5",
"D 	c #A6A6F9",
"E 	c #1717F0",
"F 	c #F5F5FE",
"G 	c #D5D5FC",
"H 	c #E6E6FD",
"I 	c #8C8CF7",
"J 	c #5555F4",
"K 	c #1E1EF0",
"L 	c #E3E3FD",
"M 	c #0404EE",
"N 	c #4B4BF3",
"O 	c #3E3EF2",
"P 	c #9797F8",
"Q 	c #7A7AF6",
"R 	c #7272F6",
"S 	c #6767F5",
"T 	c #3535F2",
"U 	c #FEFEFF",
"V 	c #1A1AF0",
"W 	c #9292F8",
"X 	c #8585F7",
"Y 	c #D4D4FC",
"Z 	c #C9C9FB",
"` 	c #A2A2F9",
" .	c #7676F6",
"..	c #3232F1",
"+.	c #D7D7FC",
"@.	c #9D9DF8",
"#.	c #6161F4",
"$.	c #F7F7FE",
"%.	c #FBFBFF",
"&.	c #B9B9FA",
"*.	c #2121F0",
"=.	c #9C9CF8",
"-.	c #6363F5",
";.	c #7D7DF6",
">.	c #AFAFFA",
",.	c #5252F3",
"'.	c #E1E1FD",
").	c #2222F0",
"!.	c #F4F4FE",
"~.	c #2525F0",
"{.	c #A4A4F9",
"].	c #0101EE",
"^.	c #EBEBFE",
"/.	c #ADADFA",
"(.	c #BDBDFB",
"_.	c #0D0DEF",
":.	c #2727F1",
"<.	c #5F5FF4",
"[.	c #A1A1F9",
"}.	c #1010EF",
"|.	c #C2C2FB",
"1.	c #F3F3FE",
"2.	c #CBCBFC",
"3.	c #CDCDFC",
"4.	c #0C0CEF",
"5.	c #1616EF",
"6.	c #8282F7",
"7.	c #ACACF9",
"8.	c #4242F2",
"9.	c #FCFCFF",
"0.	c #4949F3",
"a.	c #C8C8FB",
"b.	c #2A2AF1",
"c.	c #7474F6",
"d.	c #FAFAFF",
"e.	c #B4B4FA",
"f.	c #7979F6",
"g.	c #3C3CF2",
"h.	c #CECEFC",
"i.	c #BBBBFA",
"j.	c #3030F1",
"k.	c #C1C1FB",
"l.	c #5959F4",
"m.	c #2626F1",
"n.	c #6060F4",
"o.	c #A8A8F9",
"                                      . + @ # $ $ $ $ $ $ $ $ $ $ $ $ $ $ $ $ $ $ % & * = -                                     ",
"                                ; > , $ $ $ $ $ $ $ $ $ $ $ $ $ $ $ $ $ $ $ $ $ $ $ $ $ $ ' ) !                                 ",
"              ~ { { { { { { { { { { { { { { { ~ $ $ $ $ $ $ $ $ $ $ $ $ $ $ $ $ $ $ $ $ $ $ $ ] ^ .                             ",
"              { / / / / / / / / / / / / / / / { $ $ $ $ $ $ $ $ $ $ $ $ $ $ $ $ $ $ $ $ $ $ $ $ $ ( _ :                         ",
"              { / / / / / / / / / / / / / / / < ~ [ $ $ $ $ $ $ $ $ $ $ $ $ $ $ $ $ $ $ $ $ $ $ $ $ $ } |                       ",
"              { / / / / / / / / / / / / / / / 1 { ~ $ $ $ $ $ $ $ $ $ $ $ $ $ $ $ $ $ $ $ $ $ $ $ $ $ $ 2 3                     ",
"              { / / / 4 1 1 1 1 1 1 1 1 1 1 1 < { ~ $ 5 6 7 8 9 : 0 a b % $ $ $ $ $ $ $ $ $ $ $ $ $ $ $ $ $ c                   ",
"              { / / / 1 { { { { { { { { { { { { { ~ , d                 e f $ $ $ $ $ $ $ $ $ $ $ $ $ $ $ $ $ g                 ",
"            h { / / / 1 { i ~ ~ ~ ~ ~ ~ ~ ~ ~ ~ ~ [ j                     j k $ $ $ $ $ $ $ $ $ $ $ $ $ $ $ $ $ l               ",
"          9 m { / / / 1 { ~ $ $ $ $ $ $ $ $ $ $ n .                         o n $ $ $ $ $ $ $ $ $ $ $ $ $ $ $ $ % p             ",
"          q $ { / / / 1 { ~ $ $ $ $ $ $ $ $ $ $ r                             c $ $ $ $ $ $ $ $ $ $ $ $ $ $ $ $ $ s t           ",
"        u $ $ { / / / 1 { ~ $ $ $ $ $ $ $ $ $ 2 j                             v w $ $ $ $ $ $ $ $ $ $ $ $ $ $ $ $ $ x           ",
"      y z $ $ { / / / 4 1 < { { { { { ~ $ $ $ 6                                 A $ $ $ $ $ $ $ $ $ $ $ $ $ $ $ $ $ $ B         ",
"      C $ $ $ { / / / / / / / / / / / { $ $ $ D                                 3 $ $ $ $ $ $ $ $ $ $ $ $ $ $ $ $ $ $ E F       ",
"    G 5 $ $ $ { / / / / / / / / / / / < ~ [ $ H                                 . $ $ $ $ $ $ $ $ $ $ $ $ $ $ $ $ $ $ $ I       ",
"    J $ $ $ $ { / / / / / / / / / / / 1 { ~ K                                     z $ $ $ $ $ $ $ $ $ $ $ $ $ $ $ $ $ $ E :     ",
"  L M $ $ $ $ { / / / 4 1 1 1 1 1 1 1 < { ~ N                                     O $ $ $ $ $ $ $ $ $ $ $ $ $ $ $ $ $ $ $ P     ",
"  Q $ $ $ $ $ { / / / 1 { { { { { { { { { ~ R                                     S $ $ $ $ $ $ $ $ $ $ $ $ $ $ $ $ $ $ $ T     ",
"U V $ $ $ $ $ { / / / 1 { i ~ ~ ~ ~ ~ ~ ~ [ W                                     X $ $ $ $ $ $ $ $ $ $ $ $ $ $ $ $ $ $ $ $ Y   ",
"Z $ $ $ $ $ $ { / / / 1 { ~ $ $ $ $ $ $ $ $ 7                                     ` $ $ $ $ $ $ $ $ $ $ $ $ $ $ $ $ $ $ $ $  .  ",
"Q $ $ $ $ $ $ { / / / 1 { ~ $ $ $ $ $ $ $ $ = ~ { { { { { { { { { { { { { { { { { { { ~ $ $ $ $ $ $ $ $ $ $ $ $ $ $ $ $ $ $ &   ",
"..$ $ $ $ $ $ { / / / 1 { ~ $ $ $ $ $ $ $ $ +.{ / / / / / / / / / / / / / / / / / / / { $ $ $ $ $ $ $ $ $ $ $ $ $ $ $ $ $ $ $ ! ",
"] $ $ $ $ $ $ { / / / 1 { ~ $ $ $ $ $ $ $ $ ! { / / / / / / / / / / / / / / / / / / / < ~ [ $ $ $ $ $ $ $ $ $ $ $ $ $ $ $ $ $ @.",
"$ $ $ $ $ $ $ { / / / 1 { ~ $ $ $ $ $ $ $ $ ; { / / / / / / / / / / / / / / / / / / / 1 { ~ $ $ $ $ $ $ $ $ $ $ $ $ $ $ $ $ $ #.",
"$ $ $ $ $ $ $ { / / / 1 { ~ $ $ $ $ $ $ $ $ $.~ { < 1 1 1 1 1 4 / / / 4 1 1 1 1 1 1 1 < { ~ $ $ $ $ $ $ $ $ $ $ $ $ $ $ $ $ $ k ",
"$ $ $ $ $ $ $ { / / / 1 { ~ $ $ $ $ $ $ $ $ %.    ~ { { { { { 1 / / / 1 { { { { { { { { { ~ $ $ $ $ $ $ $ $ $ $ $ $ $ $ $ $ $ M ",
"$ $ $ $ $ $ $ { / / / 1 { ~ $ $ $ $ $ $ $ $ U     [ ~ ~ ~ ~ ~ < / / / 1 { i ~ ~ ~ ~ ~ ~ ~ [ $ $ $ $ $ $ $ $ $ $ $ $ $ $ $ $ $ $ ",
"$ $ $ $ $ $ $ { / / / 1 { ~ $ $ $ $ $ $ $ $                   { / / / 1 { ~       - $ $ $ $ $ $ $ $ $ $ $ $ $ $ $ $ $ $ $ $ $ $ ",
"$ $ $ $ $ $ $ ~ { < 1 < { ~ $ $ $ $ $ $ $ $ $ $ $ $ $ $ $ $ $ { / / / 1 { ~ $ $ $ $ $ $ $ $ $ $ $ $ $ $ $ $ $ $ $ $ $ $ $ $ $ $ ",
"$ $ $ $ $ $ $ $ $ ~ { { { ~ $ $ $ $ $ $ $ $ $ $ $ $ $ $ $ $ $ { / / / 1 { ~ $ $ $ $ $ $ $ $ $ $ $ $ $ $ $ $ $ $ $ $ $ $ $ $ $ $ ",
"$ $ $ $ $ $ $ $ $ [ ~ ~ ~ [ $ $ $ $ $ $ $ $ $ $ $ $ $ $ $ $ $ { / / / 1 { ~ $ $ $ $ $ $ $ $ $ $ $ $ $ $ $ $ $ $ $ $ $ $ $ $ $ $ ",
"$ $ $ $ $ $ $ $ $ $ $ $ $ $ $ $ $ $ $ $ $ $ $ $ $ $ $ $ $ $ $ { / / / 1 { ~ $ $ $ $ $ $ $ $ $ $ $ $ $ $ $ $ $ $ $ $ $ $ $ $ $ $ ",
"$ $ $ $ $ $ $ $ $ $ $ $ $ $ $ $ $ $ $ $ $ $ $ $ $ $ $ $ $ $ $ { / / / 1 { ~ $ $ $ $ $ $ $ $ $ $ $ $ $ $ $ $ $ $ $ $ $ $ $ $ $ $ ",
"$ $ $ $ $ $ $ $ $ $ $ $ $ $ $ $ $ $ $ $ $ $ $ $ $ $ $ $ $ $ $ { / / / 1 { ~ $ $ $ $ $ $ $ $ $ $ $ $ $ $ $ $ $ $ $ $ $ $ $ $ $ $ ",
"$ $ $ $ $ $ $ $ $ $ $ $ $ $ $ $ $ $ $ $ $ $ $ $ $ $ $ $ $ $ $ { / / / 1 { ~ $ $ $ $ $ $ $ $ $ $ $ $ $ $ $ $ $ $ $ $ $ $ $ $ $ $ ",
"$ $ $ $ $ $ $ $ $ $ $ $ $ $ $ $ $ $ $ $ $ $                   { / / / 1 { ~                                                     ",
"$ $ $ $ $ $ $ $ $ $ $ $ $ $ $ $ $ $ $ $ $ $ %.                { / / / 1 { ~               ~ { { { { { { { { { { { { { { { ~     ",
"$ $ $ $ $ $ $ $ $ $ $ $ $ $ $ $ $ $ $ $ $ $ :                 { / / / 1 { ~               { / / / / / / / / / / / / / / / {     ",
"$ $ $ $ $ $ $ $ $ $ $ $ $ $ $ $ $ $ $ $ $ $ ;                 { / / / 1 { ~               { / / / / / / / / / / / / / / / < ~ [ ",
"$ $ $ $ $ $ $ $ $ $ $ $ $ $ $ $ $ $ $ $ $ $ 0                 { / / / 1 { ~               { / / / / / / / / / / / / / / / 1 { ~ ",
"$ $ $ $ $ $ $ $ $ $ $ $ $ $ $ $ $ $ $ $ $ $ |                 { / / / 1 { ~               { / / / 4 1 1 1 1 1 1 1 1 1 1 1 < { ~ ",
"$ $ $ $ $ $ $ $ $ $ $ $ $ $ $ $ $ $ $ $ $ $ &.                { / / / 1 { ~               { / / / 1 { { { { { { { { { { { { { ~ ",
"*.$ $ $ $ $ $ $ $ $ $ $ $ $ $ $ $ $ $ $ $ $ =.                { / / / 1 { ~               { / / / 1 { i ~ ~ ~ ~ ~ ~ ~ ~ ~ ~ ~ [ ",
"-.$ $ $ $ $ $ $ $ $ $ $ $ $ $ $ $ $ $ $ $ $ ;.                { / / / 1 { ~               { / / / 1 { ~                         ",
">.$ $ $ $ $ $ $ $ $ $ $ $ $ $ $ $ $ $ $ $ $ ,.                ~ { < 1 < { ~               { / / / 1 { ~ '.$ $ $ $ $ $ $ $ $ ).  ",
"!.w $ $ $ $ $ $ $ $ $ $ $ $ $ $ $ $ $ $ $ $ ~.                    ~ { { { ~               { / / / 1 { ~ {.$ $ $ $ $ $ $ $ $ S   ",
"  J $ $ $ $ $ $ $ $ $ $ $ $ $ $ $ $ $ $ $ $ ].^.                  [ ~ ~ ~ [               { / / / 4 1 < { { { { { ~ $ $ $ $ /.  ",
"  (.$ $ $ $ $ $ $ $ $ $ $ $ $ $ $ $ $ $ $ $ $ /.                                          { / / / / / / / / / / / { $ $ $ _.:   ",
"    :.$ $ $ $ $ $ $ $ $ $ $ $ $ $ $ $ $ $ $ $ <.                                          { / / / / / / / / / / / < ~ [ $ ^     ",
"    [.$ $ $ $ $ $ $ $ $ $ $ $ $ $ $ $ $ $ $ $ }.9                                         { / / / / / / / / / / / 1 { ~ $ |.    ",
"    - k $ $ $ $ $ $ $ $ $ $ $ $ $ $ $ $ $ $ $ $ @.                                        { / / / 4 1 1 1 1 1 1 1 < { ~ T       ",
"      &.$ $ $ $ $ $ $ $ $ $ $ $ $ $ $ $ $ $ $ $ :.%.                                      { / / / 1 { { { { { { { { { ~ >.      ",
"        -.$ $ $ $ $ $ $ $ $ $ $ $ $ $ $ $ $ $ $ $ I                                       { / / / 1 { i ~ ~ ~ ~ ~ ~ ~ [         ",
"        1.).$ $ $ $ $ $ $ $ $ $ $ $ $ $ $ $ $ $ $ w 2.                                    { / / / 1 { ~ $ $ $ $ $ $ M 3.        ",
"          3.4.$ $ $ $ $ $ $ $ $ $ $ $ $ $ $ $ $ $ $ 5.Y                                   { / / / 1 { ~ $ $ $ $ $ $ 6.          ",
"            p M $ $ $ $ $ $ $ $ $ $ $ $ $ $ $ $ $ $ $ }.7.                                { / / / 1 { ~ $ $ $ $ $ 8.9.          ",
"              D M $ $ $ $ $ $ $ $ $ $ $ $ $ $ $ $ $ $ $ $ 0.a.                        L  .{ / / / 4 1 < { { { { { { { { { ~     ",
"                p 4.$ $ $ $ $ $ $ $ $ $ $ $ $ $ $ $ $ $ $ $ $ b.c.>.Y j d.9 H d e.f.g.M $ { / / / / / / / / / / / / / / / {     ",
"                  h.} $ $ $ $ $ $ $ $ $ $ $ $ $ $ $ $ $ $ $ $ $ $ $ $ $ $ $ $ $ $ $ $ $ $ { / / / / / / / / / / / / / / / < ~ [ ",
"                    1.-.$ $ $ $ $ $ $ $ $ $ $ $ $ $ $ $ $ $ $ $ $ $ $ $ $ $ $ $ $ $ $ $ $ { / / / / / / / / / / / / / / / 1 { ~ ",
"                        i.j.$ $ $ $ $ $ $ $ $ $ $ $ $ $ $ $ $ $ $ $ $ $ $ $ $ $ $ $ $ $ $ ~ { < 1 1 1 1 1 1 1 1 1 1 1 1 1 < { ~ ",
"                          U {.b.$ $ $ $ $ $ $ $ $ $ $ $ $ $ $ $ $ $ $ $ $ $ $ $ $ $ $ $ $ $ $ ~ { { { { { { { { { { { { { { { ~ ",
"                                k.l.2 $ $ $ $ $ $ $ $ $ $ $ $ $ $ $ $ $ $ $ $ $ $ $ $ $ $ $ M [ ~ ~ ~ ~ ~ ~ ~ ~ ~ ~ ~ ~ ~ ~ ~ [ ",
"                                    : e.q m.].$ $ $ $ $ $ $ $ $ $ $ $ $ $ $ $ $ $ $ $ } n.o.j                                   "};
