/* XPM */
static const char * efte48x48_xpm[] = {
"48 48 90 1",
" 	c None",
".	c #0000EE",
"+	c #500000",
"@	c #800000",
"#	c #7D0005",
"$	c #6A0027",
"%	c #540051",
"&	c #4B0062",
"*	c #44006D",
"=	c #180093",
"-	c #8C0000",
";	c #DF0000",
">	c #53003B",
",	c #A00000",
"'	c #FF0000",
")	c #920000",
"!	c #3C0000",
"~	c #0A00B2",
"{	c #EB0000",
"]	c #E00000",
"^	c #A40000",
"/	c #600000",
"(	c #1000B2",
"_	c #BA0000",
":	c #900000",
"<	c #860000",
"[	c #B00000",
"}	c #6C0000",
"|	c #39002C",
"1	c #2F003B",
"2	c #23003B",
"3	c #0600BF",
"4	c #E10000",
"5	c #C40000",
"6	c #A60000",
"7	c #3B003B",
"8	c #74001D",
"9	c #170077",
"0	c #0400D0",
"a	c #540000",
"b	c #0E00B2",
"c	c #CD0000",
"d	c #780000",
"e	c #640000",
"f	c #480000",
"g	c #0C00B2",
"h	c #1E0085",
"i	c #0200DF",
"j	c #4E0003",
"k	c #850000",
"l	c #300000",
"m	c #4B000C",
"n	c #C70000",
"o	c #DB0000",
"p	c #820000",
"q	c #380000",
"r	c #400000",
"s	c #470000",
"t	c #E70000",
"u	c #AC0000",
"v	c #720000",
"w	c #730017",
"x	c #46006A",
"y	c #3F0077",
"z	c #2F0077",
"A	c #0800D0",
"B	c #FB0000",
"C	c #F10000",
"D	c #E50000",
"E	c #A80000",
"F	c #1C00B2",
"G	c #D30000",
"H	c #660000",
"I	c #1D003B",
"J	c #F70000",
"K	c #E30000",
"L	c #C80000",
"M	c #9E0000",
"N	c #4E000C",
"O	c #120068",
"P	c #7B0009",
"Q	c #F30000",
"R	c #D60000",
"S	c #B20000",
"T	c #510056",
"U	c #400076",
"V	c #180094",
"W	c #0A00AF",
"X	c #1400A0",
"Y	c #1C0082",
"                   ............                 ",
"     +@@@@@@#$%&*=.................             ",
"     -;;;;;;;;;;;>...................           ",
"     ,''''''''''')!~...................         ",
"     ,''{]]]]]]]]^/(....................        ",
"     ,''_::::::::</(...   ...............       ",
"     ,''[}|111111123         .............      ",
"     ,''[/(.........         ..............     ",
"     ,''[/(........           ..............    ",
"    .,''456,,,7...             ..............   ",
"   ..,''''''''890.             ..............   ",
"   ..,''''''''6ab.             ...............  ",
"  ...,''c[[[[[)/(.             ...............  ",
"  ...,''[de////fg              ................ ",
" ....,''[eh((((gi               ............... ",
" ....,''[/(......e,,,,,,,,,,,,,,7.............. ",
" ....,''[/(......,''''''''''''''890.............",
" ....,''[/(......,''''''''''''''6ab.............",
".....,''[/(......jk6[[[4''c[[[[[)/(.............",
".....,''[/(...... la///5''[de////fg.............",
".....,''[/(......      6''[e    (gi.............",
".....786)/(......      ,''[/    ................",
"......9a/fg............,''[/(...................",
"......0b(gi............,''[/(...................",
".......................,''[/(...................",
".......................,''[/(...................",
".......................,''[/(...................",
".................      ,''[/     m-,,,,,,,,,,d  ",
".................      ,''[/     @;''''''''''n/ ",
".................      ,''[/     @;''''''''''opq",
".................      ,''[/     @;'{_[[[[[[[^<r",
".................      ,''[/     @;']:}////////l",
" ................      ,''[/     @;']:s         ",
" ................      +k6)/     @;']:r         ",
" .................      la/f     @;'tuvwxyzA....",
" .................               @;'BCD;;;EF... ",
"  ................               @;'''''''GHI.. ",
"  ................               @;'JK]]]]L-1.. ",
"   ................              @;'KM::::-p1.  ",
"   ................              @;']:N11111O.  ",
"    ................             @;']:1......   ",
"     ................            @;']:1......   ",
"      ................           P;'QRS,,,,,,d  ",
"       ................          T;''''''''''n/ ",
"        .........................U;''''''''''opq",
"         ........................V>)[[[[[[[[[^<r",
"           ........................!///////////l",
"             ......................WXY          "};
